<?xml version="1.0" encoding="iso-8859-1"?>
<!-- Generator: Adobe Illustrator 24.1.0, SVG Export Plug-In . SVG Version: 6.00 Build 0)  -->
<svg version="1.1" xmlns="http://www.w3.org/2000/svg" xmlns:xlink="http://www.w3.org/1999/xlink" x="0px" y="0px"
	 viewBox="0 0 512 512" style="enable-background:new 0 0 512 512;" xml:space="preserve">
<g id="_x31_5_x2C__settings_x2C__gear_x2C__control_x2C__application_setting_x2C__setup_x2C__interface">
	<g>
		<g>
			<path d="M256,166c-49.626,0-90,40.374-90,90s40.374,90,90,90s90-40.374,90-90S305.626,166,256,166z M256,316
				c-33.084,0-60-26.916-60-60s26.916-60,60-60s60,26.916,60,60S289.084,316,256,316z"/>
			<path d="M498.941,211.291l-39.599-7.919c-4.885-18.954-12.376-37.021-22.357-53.922l22.414-33.622
				c3.967-5.949,3.182-13.871-1.874-18.927l-42.427-42.427c-5.057-5.057-12.978-5.841-18.927-1.874L362.55,75.015
				c-16.901-9.981-34.968-17.473-53.922-22.357l-7.919-39.599C299.307,6.047,293.15,1,286,1h-60c-7.15,0-13.307,5.047-14.709,12.059
				l-7.919,39.599c-18.954,4.885-37.021,12.376-53.922,22.357l-33.622-22.414c-5.948-3.966-13.871-3.183-18.927,1.874L54.475,96.901
				c-5.056,5.056-5.841,12.978-1.874,18.927l22.414,33.622c-9.981,16.901-17.473,34.968-22.357,53.922l-39.599,7.919
				C6.047,212.693,1,218.85,1,226v60c0,7.15,5.047,13.307,12.059,14.709l39.599,7.919c4.885,18.954,12.376,37.021,22.357,53.922
				l-22.414,33.622c-3.967,5.949-3.182,13.871,1.874,18.927l42.427,42.427c5.057,5.057,12.977,5.841,18.927,1.874l33.622-22.414
				c16.901,9.981,34.968,17.473,53.922,22.357l7.919,39.599C212.693,505.953,218.85,511,226,511h60
				c7.15,0,13.307-5.047,14.709-12.059l7.919-39.599c18.954-4.885,37.021-12.376,53.922-22.357l33.622,22.414
				c5.95,3.967,13.871,3.184,18.927-1.874l42.427-42.427c5.056-5.056,5.841-12.978,1.874-18.927l-22.414-33.622
				c9.981-16.901,17.473-34.968,22.357-53.922l39.599-7.919C505.953,299.307,511,293.15,511,286v-60
				C511,218.85,505.953,212.693,498.941,211.291z M256,376c-66.168,0-120-53.832-120-120s53.832-120,120-120s120,53.832,120,120
				S322.168,376,256,376z"/>
		</g>
	</g>
</g>
<g id="Layer_1">
</g>
</svg>
