<?xml version="1.0" encoding="UTF-8"?>
<svg id="Calque_1" data-name="Calque 1" xmlns="http://www.w3.org/2000/svg" viewBox="0 0 510 493.16">
  <defs>
    <style>
      .cls-1 {
        fill: #ffd400;
      }

      .cls-1, .cls-2, .cls-3, .cls-4, .cls-5 {
        stroke-width: 0px;
      }

      .cls-2 {
        fill: #ffa100;
      }

      .cls-3 {
        fill: #3baa35;
      }

      .cls-4 {
        fill: #eaf0fd;
      }

      .cls-5 {
        fill: #fb0;
      }

      .cls-6 {
        fill: none;
        stroke: #3baa35;
        stroke-miterlimit: 10;
        stroke-width: 18px;
      }
    </style>
  </defs>
  <g id="_17_Coins_money_currency_cash_business" data-name="17, Coins, money, currency, cash, business">
    <g>
      <path class="cls-1" d="m405.92,102.85v52.04c0,14.37-11.65,26.02-26.02,26.02h-31.22l-142.59,46.84-148.84-46.84c-14.37,0-26.02-11.65-26.02-26.02v-52.04c0-14.37,11.65-26.02,26.02-26.02h322.65c14.37,0,26.02,11.65,26.02,26.02Z"/>
      <path class="cls-5" d="m348.67,180.91H26.02c-14.37,0-26.02,11.65-26.02,26.02v52.04c0,14.37,11.65,26.02,26.02,26.02l140.16,26.71,125.84-26.71,82.67-41.2v-36.87c0-14.37-11.65-26.02-26.02-26.02Z"/>
      <path class="cls-5" d="m261.93,389.08l-113.1-30.18-122.82,30.18C11.65,389.08,0,400.72,0,415.1v52.04C0,481.51,11.65,493.16,26.02,493.16h359.08l-123.17-104.08Z"/>
      <path class="cls-1" d="m26.02,284.99C11.65,284.99,0,296.64,0,311.01v52.04C0,377.43,11.65,389.08,26.02,389.08h235.91l30.09-104.08H26.02Z"/>
      <circle class="cls-2" cx="385.1" cy="368.26" r="124.9"/>
      <path class="cls-4" d="m385.1,359.16c-8.7,0-15.61-7.02-15.61-15.75s7-15.75,15.61-15.75h26.02c5.75,0,10.41-4.66,10.41-10.41s-4.66-10.41-10.41-10.41h-15.61v-13.59c0-5.75-4.66-10.41-10.41-10.41s-10.41,4.66-10.41,10.41v15.39c-15.03,4.49-26.02,18.43-26.02,34.91,0,20.14,16.29,36.43,36.43,36.43,4.17,0,8.1,1.62,11.04,4.57,6.1,6.1,6.1,15.98,0,22.08-2.6,2.6-6.03,4.2-9.66,4.5-.05,0-.09-.13-.14-.12-.37.04-.78-.08-1.25-.08h-26.02c-5.75,0-10.41,4.66-10.41,10.41s4.66,10.41,10.41,10.41h17.69v11.51c0,5.75,4.66,10.41,10.41,10.41s10.41-4.66,10.41-10.41v-13.52c5.2-1.81,9.45-4.66,13.18-8.39,14.5-14.5,14.05-37.54.07-51.52-6.88-6.88-16.01-10.67-25.74-10.67Z"/>
    </g>
  </g>
  <g>
    <line class="cls-6" x1="385.1" y1="161.09" x2="385.1"/>
    <polygon class="cls-3" points="458.7 139.55 385.11 267 311.51 139.55 458.7 139.55"/>
  </g>
</svg>