<?xml version="1.0" encoding="iso-8859-1"?>
<!-- Generator: Adobe Illustrator 24.1.0, SVG Export Plug-In . SVG Version: 6.00 Build 0)  -->
<svg version="1.1" xmlns="http://www.w3.org/2000/svg" xmlns:xlink="http://www.w3.org/1999/xlink" x="0px" y="0px"
	 viewBox="0 0 512 512" style="enable-background:new 0 0 512 512;" xml:space="preserve">
<g id="_x32_3_x2C__Currency_x2C__dollar_x2C__business_and_finance_x2C__argent_x2C__business_x2C__coin">
	<g>
		<g>
			<g>
				<path id="XMLID_551_" style="fill:#FFB51E;" d="M435.384,152.45c36.931,63.841,37.005,143.132,0,207.099h-0.012
					c-9.664,16.536-20.539,30.682-34.688,44.603c-0.013,0.025-0.025,0.038-0.05,0.05c-40.765,39.471-92.284,58.872-144.613,58.872
					c-159.911,0-258.861-173.289-179.351-310.624c66.783-115.488,225.447-140.042,323.964-44.653c0.025,0.013,0.038,0.025,0.05,0.05
					c13.746,13.524,24.757,27.61,34.688,44.603H435.384z"/>
				<path id="XMLID_550_" style="fill:#FADE65;" d="M476.858,128.484c44.806,77.411,46.233,175.156,0,255.033l-38.728,4.665
					l-33.388-46.307c30.628-52.944,30.688-118.701,0-171.75l26.103-41.642H476.858z"/>
				<path id="XMLID_549_" style="fill:#FADE65;" d="M255.994,427.729l46.835,30.029l-46.835,53.234
					c-94.378,0-176.766-51.269-220.864-127.475l32.474-41.642h39.641h0.01C136.939,393.206,192.434,427.729,255.994,427.729z"/>
				<path id="XMLID_548_" style="fill:#FADE65;" d="M255.994,1.009l39.55,52.039l-39.55,31.223
					c-63.561,0-119.055,34.523-148.738,85.854h-0.01l-46.918,2.612L35.13,128.484C79.228,52.278,161.616,1.009,255.994,1.009z"/>
				<path id="XMLID_547_" style="fill:#FADE65;" d="M255.994,245.592c-15.376,0-27.757-12.456-27.757-27.757
					c0-15.3,12.452-27.747,27.757-27.747h38.165c5.748,0,10.408-4.66,10.408-10.408s-4.66-10.408-10.408-10.408h-27.758v-27.757
					c0-5.748-4.66-10.408-10.408-10.408c-5.748,0-10.408,4.66-10.408,10.408v28.892c-21.797,4.778-38.165,24.223-38.165,47.429
					c0,26.849,21.743,48.573,48.573,48.573c15.374,0,27.758,12.457,27.758,27.758c0,15.313-12.399,27.747-27.758,27.747h-38.165
					c-5.748,0-10.408,4.66-10.408,10.408s4.66,10.408,10.408,10.408h27.758v27.758c0,5.748,4.66,10.408,10.408,10.408
					c5.748,0,10.408-4.66,10.408-10.408v-28.885c21.837-4.76,38.165-24.176,38.165-47.436
					C304.567,267.315,282.821,245.592,255.994,245.592z"/>
				<path id="XMLID_546_" style="fill:#FFCA47;" d="M476.858,383.516c-44.374,76.755-127.095,127.475-220.864,127.475v-83.262
					c43.489,0,86.215-16.179,119.929-48.823c0.021-0.01,0.031-0.021,0.042-0.042c11.225-10.868,21.518-24.304,28.767-36.989h0.01
					L476.858,383.516z"/>
				<path id="XMLID_545_" style="fill:#FFCA47;" d="M107.246,341.875L35.13,383.516c-4.854-8.4-8.891-16.38-12.864-25.416
					c0-0.01-0.01-0.021-0.01-0.031c-27.89-63.589-28.789-138.5,0-204.139c0-0.01,0.01-0.021,0.01-0.031
					c3.822-8.694,7.844-16.729,12.864-25.416l72.116,41.642C76.626,223.27,76.497,288.506,107.246,341.875z"/>
				<path id="XMLID_544_" style="fill:#FFCA47;" d="M476.858,128.484l-72.116,41.642h-0.01
					c-7.766-13.59-18.247-26.803-28.767-36.989c-0.01-0.021-0.021-0.031-0.042-0.042c-33.764-32.692-76.539-48.823-119.929-48.823
					V1.009C348.313,1.009,431.797,50.539,476.858,128.484z"/>
			</g>
		</g>
	</g>
</g>
<g id="Layer_1">
</g>
</svg>
