<svg xmlns="http://www.w3.org/2000/svg" viewBox="0 0 510 510">
    <g>
        <path fill="#9ca3af" d="m255,106.15c-82.08,0-148.85,66.77-148.85,148.85s66.77,148.85,148.85,148.85,148.85-66.77,148.85-148.85-66.77-148.85-148.85-148.85Zm0,237.49c-48.88,0-88.64-39.76-88.64-88.64s39.76-88.64,88.64-88.64,88.64,39.76,88.64,88.64-39.76,88.64-88.64,88.64Z"/>
        <path fill="#9ca3af" d="m497.94,210.29l-39.6-7.92c-4.89-18.95-12.38-37.02-22.36-53.92l22.41-33.62c3.97-5.95,3.18-13.87-1.87-18.93l-42.43-42.43c-5.06-5.06-12.98-5.84-18.93-1.87l-33.62,22.42c-16.9-9.98-34.97-17.47-53.92-22.36l-7.92-39.6c-1.4-7.01-7.56-12.06-14.71-12.06h-60c-7.15,0-13.31,5.05-14.71,12.06l-7.92,39.6c-18.95,4.89-37.02,12.38-53.92,22.36l-33.62-22.41c-5.95-3.97-13.87-3.18-18.93,1.87l-42.43,42.43c-5.06,5.06-5.84,12.98-1.87,18.93l22.41,33.62c-9.98,16.9-17.47,34.97-22.36,53.92l-39.6,7.92c-7.01,1.4-12.06,7.56-12.06,14.71v60c0,7.15,5.05,13.31,12.06,14.71l39.6,7.92c4.89,18.95,12.38,37.02,22.36,53.92l-22.41,33.62c-3.97,5.95-3.18,13.87,1.87,18.93l42.43,42.43c5.06,5.06,12.98,5.84,18.93,1.87l33.62-22.41c16.9,9.98,34.97,17.47,53.92,22.36l7.92,39.6c1.4,7.01,7.56,12.06,14.71,12.06h60c7.15,0,13.31-5.05,14.71-12.06l7.92-39.6c18.95-4.89,37.02-12.38,53.92-22.36l33.62,22.41c5.95,3.97,13.87,3.18,18.93-1.87l42.43-42.43c5.06-5.06,5.84-12.98,1.87-18.93l-22.41-33.62c9.98-16.9,17.47-34.97,22.36-53.92l39.6-7.92c7.01-1.4,12.06-7.56,12.06-14.71v-60c0-7.15-5.05-13.31-12.06-14.71Zm-242.94,164.71c-66.17,0-120-53.83-120-120s53.83-120,120-120,120,53.83,120,120-53.83,120-120,120Z"/>
    </g>
</svg>