<?xml version="1.0" encoding="iso-8859-1"?>
<!-- Generator: Adobe Illustrator 24.1.0, SVG Export Plug-In . SVG Version: 6.00 Build 0)  -->
<svg version="1.1" xmlns="http://www.w3.org/2000/svg" xmlns:xlink="http://www.w3.org/1999/xlink" x="0px" y="0px"
	 viewBox="0 0 512 512" style="enable-background:new 0 0 512 512;" xml:space="preserve">
<g id="_x31_7_x2C__Coins_x2C__money_x2C__currency_x2C__cash_x2C__business">
	<g>
		<g>
			<path id="XMLID_815_" style="fill:#FFD400;" d="M406.918,73.857v52.041c0,14.374-11.647,26.02-26.02,26.02h-31.224
				l-142.592,46.837L58.245,151.918c-14.374,0-26.02-11.647-26.02-26.02V73.857c0-14.374,11.647-26.02,26.02-26.02h322.653
				C395.272,47.837,406.918,59.483,406.918,73.857z"/>
			<path id="XMLID_814_" style="fill:#FFBB00;" d="M349.673,151.918c-16.312,0-308.309,0-322.653,0
				c-14.374,0-26.02,11.647-26.02,26.02v52.041C1,244.353,12.647,256,27.02,256l140.163,26.714L293.022,256l82.672-41.196v-36.866
				C375.694,163.565,364.047,151.918,349.673,151.918z"/>
			<path id="XMLID_810_" style="fill:#FFBB00;" d="M262.932,360.082l-113.095-30.184L27.02,360.082
				c-14.374,0-26.02,11.647-26.02,26.02v52.041c0,14.374,11.647,26.02,26.02,26.02h359.082L262.932,360.082z"/>
			<path id="XMLID_800_" style="fill:#FFD400;" d="M27.02,256C12.647,256,1,267.647,1,282.02v52.041
				c0,14.374,11.647,26.02,26.02,26.02c8.309,0,229.685,0,235.911,0L293.022,256H27.02z"/>
			<circle id="XMLID_785_" style="fill:#FFA100;" cx="386.102" cy="339.265" r="124.898"/>
			<path id="XMLID_783_" style="fill:#EAF0FD;" d="M386.102,330.168c-8.699,0-15.612-7.018-15.612-15.747
				c0-8.609,7.003-15.747,15.612-15.747h26.02c5.748,0,10.408-4.66,10.408-10.408c0-5.748-4.66-10.408-10.408-10.408H396.51v-13.593
				c0-5.748-4.66-10.408-10.408-10.408c-5.748,0-10.408,4.66-10.408,10.408v15.386c-15.03,4.49-26.02,18.435-26.02,34.906
				c0,20.14,16.285,36.429,36.429,36.429c4.173,0,8.095,1.623,11.042,4.572c6.098,6.096,6.099,15.983-0.001,22.083
				c-2.597,2.597-6.027,4.197-9.658,4.503c-0.046,0.004-0.091-0.127-0.137-0.122c-0.374,0.037-0.782-0.081-1.246-0.081h-26.02
				c-5.748,0-10.408,4.66-10.408,10.408c0,5.748,4.66,10.408,10.408,10.408h17.694v11.511c0,5.748,4.66,10.408,10.408,10.408
				c5.748,0,10.408-4.66,10.408-10.408v-13.515c5.204-1.809,9.449-4.657,13.183-8.392c14.501-14.501,14.051-37.54,0.067-51.522
				C404.964,333.958,395.836,330.168,386.102,330.168z"/>
		</g>
	</g>
</g>
<g id="Layer_1">
</g>
</svg>
