<?xml version="1.0" encoding="iso-8859-1"?>
<!-- Generator: Adobe Illustrator 24.1.0, SVG Export Plug-In . SVG Version: 6.00 Build 0)  -->
<svg version="1.1" xmlns="http://www.w3.org/2000/svg" xmlns:xlink="http://www.w3.org/1999/xlink" x="0px" y="0px"
	 viewBox="0 0 512 512" style="enable-background:new 0 0 512 512;" xml:space="preserve">
<g id="_x38_1_x2C__Delete_x2C__trash_x2C__trash_can_x2C__remove_x2C__interface">
	<g>
		<g>
			<path d="M346.667,386.333c9.374,0,17-7.626,17-17V188c0-9.374-7.626-17-17-17c-9.374,0-17,7.626-17,17v181.333
				C329.667,378.708,337.293,386.333,346.667,386.333z"/>
			<path d="M256,386.333c9.374,0,17-7.626,17-17V188c0-9.374-7.626-17-17-17c-9.374,0-17,7.626-17,17v181.333
				C239,378.708,246.626,386.333,256,386.333z"/>
			<path d="M165.333,386.333c9.374,0,17-7.626,17-17V188c0-9.374-7.626-17-17-17s-17,7.626-17,17v181.333
				C148.333,378.708,155.96,386.333,165.333,386.333z"/>
			<path d="M295.667,40.667C295.667,18.795,277.872,1,256,1s-39.667,17.795-39.667,39.667v5.667h79.333V40.667z"/>
			<path d="M182.333,486.274c0,13.634,11.092,24.726,24.726,24.726h97.882c13.634,0,24.726-11.092,24.726-24.726V477H182.333
				V486.274z"/>
			<path d="M107.984,421.761c3.23,25.031,24.698,43.906,49.935,43.906h18.748h158.667h18.748c25.238,0,46.705-18.875,49.935-43.906
				l38.206-296.094H69.778L107.984,421.761z M318.333,188c0-15.623,12.71-28.333,28.333-28.333C362.29,159.667,375,172.377,375,188
				v181.333c0,15.623-12.71,28.333-28.333,28.333c-15.623,0-28.333-12.71-28.333-28.333V188z M227.667,188
				c0-15.623,12.71-28.333,28.333-28.333s28.333,12.71,28.333,28.333v181.333c0,15.623-12.71,28.333-28.333,28.333
				s-28.333-12.71-28.333-28.333V188z M137,188c0-15.623,12.71-28.333,28.333-28.333s28.333,12.71,28.333,28.333v181.333
				c0,15.623-12.71,28.333-28.333,28.333S137,384.957,137,369.333V188z"/>
			<path d="M460,57.667H301.333h-90.667H52c-15.623,0-28.333,12.71-28.333,28.333S36.377,114.333,52,114.333h11.333h385.333H460
				c15.623,0,28.333-12.71,28.333-28.333S475.623,57.667,460,57.667z"/>
		</g>
	</g>
</g>
<g id="Layer_1">
</g>
</svg>
